<svg width="800" height="800" viewBox="0 0 800 800" fill="none" xmlns="http://www.w3.org/2000/svg">
  <g opacity="0.4">
    <path d="M400 0C620.914 0 800 179.086 800 400C800 620.914 620.914 800 400 800C179.086 800 0 620.914 0 400C0 179.086 179.086 0 400 0ZM400 80C223.269 80 80 223.269 80 400C80 576.731 223.269 720 400 720C576.731 720 720 576.731 720 400C720 223.269 576.731 80 400 80Z" fill="white"/>
    <path d="M400 160C533.137 160 640 266.863 640 400C640 533.137 533.137 640 400 640C266.863 640 160 533.137 160 400C160 266.863 266.863 160 400 160ZM400 240C311.634 240 240 311.634 240 400C240 488.366 311.634 560 400 560C488.366 560 560 488.366 560 400C560 311.634 488.366 240 400 240Z" fill="white"/>
    <path d="M400 320C444.183 320 480 355.817 480 400C480 444.183 444.183 480 400 480C355.817 480 320 444.183 320 400C320 355.817 355.817 320 400 320Z" fill="white"/>
  </g>
  <g opacity="0.2">
    <circle cx="100" cy="100" r="20" fill="white"/>
    <circle cx="700" cy="100" r="20" fill="white"/>
    <circle cx="100" cy="700" r="20" fill="white"/>
    <circle cx="700" cy="700" r="20" fill="white"/>
    <circle cx="200" cy="200" r="10" fill="white"/>
    <circle cx="600" cy="200" r="10" fill="white"/>
    <circle cx="200" cy="600" r="10" fill="white"/>
    <circle cx="600" cy="600" r="10" fill="white"/>
  </g>
  <g opacity="0.3">
    <path d="M0 0L80 80M720 80L800 0M0 800L80 720M800 800L720 720" stroke="white" stroke-width="2"/>
    <path d="M400 0V80M400 720V800M0 400H80M720 400H800" stroke="white" stroke-width="2"/>
  </g>
</svg> 