<?xml version="1.0" encoding="UTF-8"?>
<svg width="800" height="600" viewBox="0 0 800 600" fill="none" xmlns="http://www.w3.org/2000/svg">
  <!-- Background -->
  <rect width="800" height="600" fill="#F9FAFB"/>
  
  <!-- Product image gallery -->
  <rect x="40" y="40" width="360" height="360" rx="8" fill="#E5E7EB"/>
  <rect x="40" y="410" width="80" height="80" rx="4" fill="#D1D5DB"/>
  <rect x="130" y="410" width="80" height="80" rx="4" fill="#D1D5DB"/>
  <rect x="220" y="410" width="80" height="80" rx="4" fill="#D1D5DB"/>
  <rect x="310" y="410" width="80" height="80" rx="4" fill="#D1D5DB"/>
  
  <!-- Product info section -->
  <rect x="440" y="40" width="320" height="24" rx="4" fill="#111827"/>
  <rect x="440" y="74" width="240" height="16" rx="4" fill="#6B7280"/>
  
  <!-- Rating -->
  <rect x="440" y="110" width="120" height="16" rx="4" fill="#F59E0B"/>
  
  <!-- Price -->
  <rect x="440" y="146" width="100" height="24" rx="4" fill="#111827"/>
  <rect x="550" y="146" width="80" height="24" rx="4" fill="#EF4444" fill-opacity="0.1"/>
  <rect x="560" y="152" width="60" height="12" rx="2" fill="#EF4444"/>
  
  <!-- Variant selection -->
  <rect x="440" y="190" width="100" height="16" rx="4" fill="#374151"/>
  <rect x="440" y="216" width="60" height="32" rx="16" fill="#E5E7EB"/>
  <rect x="510" y="216" width="60" height="32" rx="16" fill="#E5E7EB"/>
  <rect x="580" y="216" width="60" height="32" rx="16" fill="#E5E7EB"/>
  
  <!-- Quantity selector -->
  <rect x="440" y="268" width="100" height="16" rx="4" fill="#374151"/>
  <rect x="440" y="294" width="120" height="40" rx="8" fill="#E5E7EB"/>
  <rect x="450" y="304" width="20" height="20" rx="4" fill="#9CA3AF"/>
  <rect x="530" y="304" width="20" height="20" rx="4" fill="#9CA3AF"/>
  <rect x="480" y="304" width="40" height="20" rx="4" fill="#F9FAFB"/>
  
  <!-- Add to cart button -->
  <rect x="440" y="354" width="320" height="48" rx="8" fill="#4F46E5"/>
  <rect x="560" y="370" width="80" height="16" rx="4" fill="#ffffff"/>
  
  <!-- Tabs -->
  <rect x="40" y="510" width="720" height="40" rx="8" fill="#F3F4F6"/>
  <rect x="60" y="522" width="100" height="16" rx="4" fill="#111827"/>
  <rect x="180" y="522" width="100" height="16" rx="4" fill="#9CA3AF"/>
  <rect x="300" y="522" width="100" height="16" rx="4" fill="#9CA3AF"/>
  
  <!-- Tab content -->
  <rect x="40" y="560" width="720" height="16" rx="4" fill="#6B7280"/>
</svg> 